<svg xmlns="http://www.w3.org/2000/svg" xmlns:xlink="http://www.w3.org/1999/xlink" width="48" height="48" viewBox="0 0 48 48"><defs><linearGradient id="b" x1="1073.403" x2="1097.116" y1="516.451" y2="544.308" gradientTransform="translate(-1643.872 211.343) scale(1.53785)" gradientUnits="userSpaceOnUse" xlink:href="#a"/><linearGradient id="a"><stop offset="0" stop-color="#16ff6a"/><stop offset="1" stop-color="#0090a5"/></linearGradient></defs><g transform="translate(0 -1004.362)"><rect width="48" height="48" y="1004.362" fill="url(#b)" rx="10.144" ry="10.144"/><path fill="#fff" style="line-height:normal;text-indent:0;text-align:start;text-decoration-line:none;text-decoration-style:solid;text-decoration-color:#000;text-transform:none;block-progression:tb;isolation:auto;mix-blend-mode:normal" d="m 24,1013.3622 c -0.571792,0 -1.144002,0.1951 -1.607422,0.584 -0.720434,0.6045 -0.874255,1.5334 -0.689453,2.416 l -2.203125,0 a 0.50005,0.50005 0 0 0 -0.5,0.5 l 0,0.5 -3,0 c -1.099351,0 -2,0.9006 -2,2 l 0,21 c 0,1.0994 0.900649,2 2,2 l 16,0 c 1.099351,0 2,-0.9006 2,-2 l 0,-21 c 0,-1.0994 -0.900649,-2 -2,-2 l -3,0 0,-0.5 a 0.50005,0.50005 0 0 0 -0.5,-0.5 l -2.203125,0 c 0.184802,-0.8826 0.03098,-1.8115 -0.689453,-2.416 -0.46342,-0.3889 -1.03563,-0.584 -1.607422,-0.584 z m 0,0.998 c 0.342026,0 0.68475,0.1166 0.964844,0.3516 0.560182,0.4701 0.699629,1.2671 0.333984,1.9004 a 0.50005,0.50005 0 0 0 0.433594,0.75 l 0.517578,0 1.75,0 0,0.418 a 0.50005,0.50005 0 0 0 0,0.164 l 0,1.836 a 0.50005,0.50005 0 0 0 0,0.164 l 0,0.418 -8,0 0,-0.4219 a 0.50005,0.50005 0 0 0 0,-0.1601 l 0,-1.8399 a 0.50005,0.50005 0 0 0 0,-0.1601 l 0,-0.418 1.75,0 0.517578,0 a 0.50005,0.50005 0 0 0 0.433594,-0.75 c -0.365645,-0.6333 -0.226198,-1.4303 0.333984,-1.9004 0.280094,-0.235 0.622818,-0.3516 0.964844,-0.3516 z m 0,1 a 0.5,0.50002819 0 0 0 -0.5,0.5 0.5,0.50002819 0 0 0 0.5,0.5 0.5,0.50002819 0 0 0 0.5,-0.5 0.5,0.50002819 0 0 0 -0.5,-0.5 z m -8,3.002 3,0 0,1 -1.5,0 c -0.822356,0 -1.5,0.6777 -1.5,1.5 l 0,18 c 0,0.8224 0.677644,1.5 1.5,1.5 l 13,0 c 0.822356,0 1.5,-0.6776 1.5,-1.5 l 0,-18 c 0,-0.8223 -0.677644,-1.5 -1.5,-1.5 l -1.5,0 0,-1 3,0 c 0.562649,0 1,0.4372 1,1 l 0,21 c 0,0.5628 -0.437351,1 -1,1 l -16,0 c -0.562649,0 -1,-0.4372 -1,-1 l 0,-21 c 0,-0.5628 0.437351,-1 1,-1 z m 1.5,2 1.5,0 0,0.5 a 0.50005,0.50005 0 0 0 0.5,0.5 l 9,0 a 0.50005,0.50005 0 0 0 0.5,-0.5 l 0,-0.5 1.5,0 c 0.285662,0 0.5,0.2144 0.5,0.5 l 0,18 c 0,0.2857 -0.214338,0.5 -0.5,0.5 l -13,0 c -0.285663,0 -0.5,-0.2143 -0.5,-0.5 l 0,-18 c 0,-0.2856 0.214337,-0.5 0.5,-0.5 z m 0.957031,3 a 0.50064426,0.50064426 0 0 0 0.05078,1 l 0.984376,0 a 0.50005,0.50005 0 1 0 0,-1 l -0.984376,0 a 0.50005,0.50005 0 0 0 -0.05078,0 z m 2.998047,0 a 0.50064426,0.50064426 0 0 0 0.05078,1 l 4.986329,0 a 0.50005,0.50005 0 1 0 0,-1 l -4.986329,0 a 0.50005,0.50005 0 0 0 -0.05078,0 z m -2.998047,3 a 0.50064426,0.50064426 0 0 0 0.05078,1 l 0.984376,0 a 0.50005,0.50005 0 1 0 0,-1 l -0.984376,0 a 0.50005,0.50005 0 0 0 -0.05078,0 z m 2.998047,0 a 0.50064426,0.50064426 0 0 0 0.05078,1 l 4.986329,0 a 0.50005,0.50005 0 1 0 0,-1 l -4.986329,0 a 0.50005,0.50005 0 0 0 -0.05078,0 z m -2.998047,3 a 0.50064426,0.50064426 0 0 0 0.05078,1 l 0.984376,0 a 0.50005,0.50005 0 1 0 0,-1 l -0.984376,0 a 0.50005,0.50005 0 0 0 -0.05078,0 z m 2.998047,0 a 0.50064426,0.50064426 0 0 0 0.05078,1 l 4.986329,0 a 0.50005,0.50005 0 1 0 0,-1 l -4.986329,0 a 0.50005,0.50005 0 0 0 -0.05078,0 z m 3.044922,5 c -0.294451,5e-4 -0.506396,0.1362 -0.669922,0.2695 -0.163525,0.1332 -0.292615,0.285 -0.402344,0.4297 -0.219458,0.2896 -0.363281,0.5703 -0.363281,0.5703 a 0.50013673,0.50013673 0 1 0 0.886719,0.4629 c 0,0 0.116051,-0.2195 0.27539,-0.4297 0.07494,-0.099 0.157368,-0.1863 0.222657,-0.2422 0.02886,0.048 0.05294,0.085 0.0957,0.168 0.06521,0.1268 0.139032,0.2824 0.27539,0.4414 0.136363,0.1591 0.387874,0.3301 0.679691,0.3301 0.291683,0 0.543356,-0.171 0.679688,-0.3301 0.13633,-0.159 0.210241,-0.3147 0.27539,-0.4414 0.01991,-0.039 0.0272,-0.046 0.04492,-0.078 0.01772,0.032 0.02501,0.039 0.04492,0.078 0.06515,0.1267 0.13906,0.2824 0.27539,0.4414 0.136336,0.1591 0.388009,0.3301 0.679692,0.3301 0.29155,0 0.543384,-0.171 0.679688,-0.3301 0.136303,-0.159 0.210306,-0.3147 0.27539,-0.4414 0.04351,-0.085 0.06868,-0.1223 0.09766,-0.1699 0.0672,0.056 0.15463,0.1452 0.232422,0.2461 0.162583,0.211 0.28125,0.4316 0.28125,0.4316 a 0.50005,0.50005 0 1 0 0.88086,-0.4707 c 0,0 -0.148177,-0.281 -0.371094,-0.5703 -0.111458,-0.1446 -0.241408,-0.2951 -0.40625,-0.4277 -0.164846,-0.1325 -0.375085,-0.2681 -0.669926,-0.2676 -0.294391,5e-4 -0.542486,0.1818 -0.671875,0.3398 -0.129389,0.1579 -0.198333,0.3084 -0.261719,0.4317 -0.02899,0.056 -0.04262,0.072 -0.06641,0.1133 -0.02382,-0.041 -0.0374,-0.057 -0.06641,-0.1133 -0.06343,-0.1233 -0.13237,-0.2738 -0.261719,-0.4317 -0.129341,-0.158 -0.377222,-0.3398 -0.671867,-0.3398 -0.294645,0 -0.542526,0.1818 -0.671875,0.3398 -0.129349,0.1579 -0.198293,0.3084 -0.261719,0.4317 -0.02901,0.056 -0.04259,0.072 -0.06641,0.1133 -0.02385,-0.041 -0.03738,-0.057 -0.06641,-0.1133 -0.06347,-0.1234 -0.132411,-0.2738 -0.261719,-0.4317 -0.1293,-0.1579 -0.376966,-0.3403 -0.671867,-0.3398 z m -1.042969,3 a 0.50064426,0.50064426 0 0 0 0.05078,1 l 6,0 a 0.50005,0.50005 0 1 0 0,-1 l -6,0 a 0.50005,0.50005 0 0 0 -0.05078,0 z" color="#000" font-family="sans-serif" font-weight="400" overflow="visible"/></g></svg>